# xmcd CD database file
#
# Track frame offsets:
#	150
#	10519
#	21880
#	34800
#	48111
#	60878
#	72172
#	81566
#	91113
#	107804
#	123234
#	132666
#	146044
#	157398
#	174878
#	187139
#	199453
#	210946
#	223074
#
# Disc length: 3262 seconds
#
# Revision: 1
# Processed by: cddbd v1.5.2PL0 Copyright (c) Steve Scherf et al.
# Submitted via: CDex 1.51
#
DISCID=110cbc13
DTITLE=Stéphane Grappelli - Reader's Digest - CD3 - A Tribute to
DYEAR=1900
DGENRE=Jazz
TTITLE0=Opportunity
TTITLE1=Hesitation
TTITLE2=Emotion
TTITLE3=Tournesol
TTITLE4=Gerba
TTITLE5=Errol
TTITLE6=Saluting Basie
TTITLE7=Portrait of Jobim
TTITLE8=Terry
TTITLE9=Dedicated to Joao
TTITLE10=Fats Delight
TTITLE11=Kenny's Tune
TTITLE12=To Django
TTITLE13=Tribute to the Bird
TTITLE14=Remembrances to Duke
TTITLE15=Ode to Ray Brown
TTITLE16=Dizzy
TTITLE17=To Benny
TTITLE18=Forever is a Long Long Time
EXTD=
EXTT0=
EXTT1=
EXTT2=
EXTT3=
EXTT4=
EXTT5=
EXTT6=
EXTT7=
EXTT8=
EXTT9=
EXTT10=
EXTT11=
EXTT12=
EXTT13=
EXTT14=
EXTT15=
EXTT16=
EXTT17=
EXTT18=
PLAYORDER=
